<?xml version="1.0" encoding="UTF-8" standalone="no"?>
<!DOCTYPE svg PUBLIC "-//W3C//DTD SVG 1.1//EN"
 "http://www.w3.org/Graphics/SVG/1.1/DTD/svg11.dtd">
<!-- Generated by graphviz version 2.38.0 (20140413.2041)
 -->
<!-- Title: %3 Pages: 1 -->
<svg width="910pt" height="260pt"
 viewBox="0.00 0.00 909.69 260.00" xmlns="http://www.w3.org/2000/svg" xmlns:xlink="http://www.w3.org/1999/xlink">
<g id="graph0" class="graph" transform="scale(1 1) rotate(0) translate(4 256)">
<title>%3</title>
<polygon fill="white" stroke="none" points="-4,4 -4,-256 905.694,-256 905.694,4 -4,4"/>
<!-- ROOT -->
<g id="node1" class="node"><title>ROOT</title>
<ellipse fill="red" stroke="red" cx="533.797" cy="-234" rx="27" ry="18"/>
<text text-anchor="middle" x="533.797" y="-230.3" font-family="Times,serif" font-size="14.00">root</text>
</g>
<!-- A01 -->
<g id="node2" class="node"><title>A01</title>
<ellipse fill="none" stroke="black" cx="209.797" cy="-162" rx="27" ry="18"/>
<text text-anchor="middle" x="209.797" y="-158.3" font-family="Times,serif" font-size="14.00">A01</text>
</g>
<!-- ROOT&#45;&gt;A01 -->
<g id="edge1" class="edge"><title>ROOT&#45;&gt;A01</title>
<path fill="none" stroke="black" d="M507.025,-230.416C455.457,-224.929 339.193,-210.081 245.797,-180 243.873,-179.38 241.918,-178.68 239.965,-177.926"/>
<polygon fill="black" stroke="black" points="240.936,-174.535 230.365,-173.83 238.189,-180.974 240.936,-174.535"/>
</g>
<!-- A02 -->
<g id="node3" class="node"><title>A02</title>
<ellipse fill="none" stroke="black" cx="281.797" cy="-162" rx="27" ry="18"/>
<text text-anchor="middle" x="281.797" y="-158.3" font-family="Times,serif" font-size="14.00">A02</text>
</g>
<!-- ROOT&#45;&gt;A02 -->
<g id="edge2" class="edge"><title>ROOT&#45;&gt;A02</title>
<path fill="none" stroke="black" d="M508.04,-228.418C467.047,-220.741 384.755,-203.753 317.797,-180 315.892,-179.324 313.952,-178.581 312.01,-177.794"/>
<polygon fill="black" stroke="black" points="313.003,-174.409 302.438,-173.613 310.201,-180.823 313.003,-174.409"/>
</g>
<!-- A03 -->
<g id="node5" class="node"><title>A03</title>
<ellipse fill="none" stroke="black" cx="353.797" cy="-162" rx="27" ry="18"/>
<text text-anchor="middle" x="353.797" y="-158.3" font-family="Times,serif" font-size="14.00">A03</text>
</g>
<!-- ROOT&#45;&gt;A03 -->
<g id="edge3" class="edge"><title>ROOT&#45;&gt;A03</title>
<path fill="none" stroke="black" d="M510.103,-225.002C481.36,-215.135 431.563,-197.507 389.797,-180 387.98,-179.238 386.122,-178.436 384.254,-177.611"/>
<polygon fill="black" stroke="black" points="385.528,-174.345 374.977,-173.383 382.625,-180.715 385.528,-174.345"/>
</g>
<!-- A04 -->
<g id="node15" class="node"><title>A04</title>
<ellipse fill="none" stroke="black" cx="425.797" cy="-162" rx="27" ry="18"/>
<text text-anchor="middle" x="425.797" y="-158.3" font-family="Times,serif" font-size="14.00">A04</text>
</g>
<!-- ROOT&#45;&gt;A04 -->
<g id="edge4" class="edge"><title>ROOT&#45;&gt;A04</title>
<path fill="none" stroke="black" d="M514.985,-220.807C497.795,-209.665 472.179,-193.062 452.804,-180.504"/>
<polygon fill="black" stroke="black" points="454.689,-177.555 444.394,-175.053 450.881,-183.429 454.689,-177.555"/>
</g>
<!-- A05 -->
<g id="node16" class="node"><title>A05</title>
<ellipse fill="none" stroke="black" cx="497.797" cy="-162" rx="27" ry="18"/>
<text text-anchor="middle" x="497.797" y="-158.3" font-family="Times,serif" font-size="14.00">A05</text>
</g>
<!-- ROOT&#45;&gt;A05 -->
<g id="edge5" class="edge"><title>ROOT&#45;&gt;A05</title>
<path fill="none" stroke="black" d="M525.447,-216.765C521.085,-208.283 515.65,-197.714 510.756,-188.197"/>
<polygon fill="black" stroke="black" points="513.787,-186.439 506.101,-179.147 507.562,-189.641 513.787,-186.439"/>
</g>
<!-- A06 -->
<g id="node18" class="node"><title>A06</title>
<ellipse fill="none" stroke="black" cx="569.797" cy="-162" rx="27" ry="18"/>
<text text-anchor="middle" x="569.797" y="-158.3" font-family="Times,serif" font-size="14.00">A06</text>
</g>
<!-- ROOT&#45;&gt;A06 -->
<g id="edge6" class="edge"><title>ROOT&#45;&gt;A06</title>
<path fill="none" stroke="black" d="M542.147,-216.765C546.509,-208.283 551.944,-197.714 556.838,-188.197"/>
<polygon fill="black" stroke="black" points="560.032,-189.641 561.493,-179.147 553.807,-186.439 560.032,-189.641"/>
</g>
<!-- A07 -->
<g id="node19" class="node"><title>A07</title>
<ellipse fill="none" stroke="black" cx="641.797" cy="-162" rx="27" ry="18"/>
<text text-anchor="middle" x="641.797" y="-158.3" font-family="Times,serif" font-size="14.00">A07</text>
</g>
<!-- ROOT&#45;&gt;A07 -->
<g id="edge7" class="edge"><title>ROOT&#45;&gt;A07</title>
<path fill="none" stroke="black" d="M552.609,-220.807C569.799,-209.665 595.415,-193.062 614.79,-180.504"/>
<polygon fill="black" stroke="black" points="616.713,-183.429 623.2,-175.053 612.905,-177.555 616.713,-183.429"/>
</g>
<!-- A08 -->
<g id="node21" class="node"><title>A08</title>
<ellipse fill="none" stroke="black" cx="713.797" cy="-162" rx="27" ry="18"/>
<text text-anchor="middle" x="713.797" y="-158.3" font-family="Times,serif" font-size="14.00">A08</text>
</g>
<!-- ROOT&#45;&gt;A08 -->
<g id="edge8" class="edge"><title>ROOT&#45;&gt;A08</title>
<path fill="none" stroke="black" d="M557.491,-225.002C586.234,-215.135 636.031,-197.507 677.797,-180 679.614,-179.238 681.472,-178.436 683.34,-177.611"/>
<polygon fill="black" stroke="black" points="684.969,-180.715 692.617,-173.383 682.066,-174.345 684.969,-180.715"/>
</g>
<!-- A09 -->
<g id="node23" class="node"><title>A09</title>
<ellipse fill="none" stroke="black" cx="789.797" cy="-162" rx="27" ry="18"/>
<text text-anchor="middle" x="789.797" y="-158.3" font-family="Times,serif" font-size="14.00">A09</text>
</g>
<!-- ROOT&#45;&gt;A09 -->
<g id="edge9" class="edge"><title>ROOT&#45;&gt;A09</title>
<path fill="none" stroke="black" d="M559.447,-228.104C600.292,-219.998 682.385,-202.433 749.797,-180 752.71,-179.031 755.708,-177.94 758.689,-176.791"/>
<polygon fill="black" stroke="black" points="760.084,-180.002 768.035,-173 757.453,-173.516 760.084,-180.002"/>
</g>
<!-- A10 -->
<g id="node25" class="node"><title>A10</title>
<ellipse fill="none" stroke="black" cx="869.797" cy="-162" rx="27" ry="18"/>
<text text-anchor="middle" x="869.797" y="-158.3" font-family="Times,serif" font-size="14.00">A10</text>
</g>
<!-- ROOT&#45;&gt;A10 -->
<g id="edge10" class="edge"><title>ROOT&#45;&gt;A10</title>
<path fill="none" stroke="black" d="M560.351,-229.891C612.108,-223.458 729.823,-206.988 825.797,-180 829.877,-178.853 834.105,-177.475 838.255,-176.006"/>
<polygon fill="black" stroke="black" points="839.548,-179.259 847.69,-172.48 837.098,-172.702 839.548,-179.259"/>
</g>
<!-- R006 -->
<g id="node4" class="node"><title>R006</title>
<ellipse fill="none" stroke="black" cx="150.797" cy="-90" rx="29.795" ry="18"/>
<text text-anchor="middle" x="150.797" y="-86.3" font-family="Times,serif" font-size="14.00">R006</text>
</g>
<!-- A02&#45;&gt;R006 -->
<g id="edge11" class="edge"><title>A02&#45;&gt;R006</title>
<path fill="none" stroke="black" d="M261.328,-150.062C239.889,-138.606 205.973,-120.483 181.361,-107.332"/>
<polygon fill="black" stroke="black" points="182.898,-104.185 172.429,-102.559 179.599,-110.359 182.898,-104.185"/>
</g>
<!-- R008 -->
<g id="node6" class="node"><title>R008</title>
<ellipse fill="none" stroke="black" cx="228.797" cy="-90" rx="29.795" ry="18"/>
<text text-anchor="middle" x="228.797" y="-86.3" font-family="Times,serif" font-size="14.00">R008</text>
</g>
<!-- A03&#45;&gt;R008 -->
<g id="edge12" class="edge"><title>A03&#45;&gt;R008</title>
<path fill="none" stroke="black" d="M333.714,-149.753C313.486,-138.426 282.036,-120.814 258.841,-107.825"/>
<polygon fill="black" stroke="black" points="260.521,-104.754 250.086,-102.922 257.101,-110.861 260.521,-104.754"/>
</g>
<!-- R009 -->
<g id="node11" class="node"><title>R009</title>
<ellipse fill="none" stroke="black" cx="353.797" cy="-90" rx="29.795" ry="18"/>
<text text-anchor="middle" x="353.797" y="-86.3" font-family="Times,serif" font-size="14.00">R009</text>
</g>
<!-- A03&#45;&gt;R009 -->
<g id="edge13" class="edge"><title>A03&#45;&gt;R009</title>
<path fill="none" stroke="black" d="M353.797,-143.697C353.797,-135.983 353.797,-126.712 353.797,-118.112"/>
<polygon fill="black" stroke="black" points="357.297,-118.104 353.797,-108.104 350.297,-118.104 357.297,-118.104"/>
</g>
<!-- R009c -->
<g id="node14" class="node"><title>R009c</title>
<ellipse fill="none" stroke="black" cx="435.797" cy="-90" rx="33.5952" ry="18"/>
<text text-anchor="middle" x="435.797" y="-86.3" font-family="Times,serif" font-size="14.00">R009c</text>
</g>
<!-- A03&#45;&gt;R009c -->
<g id="edge14" class="edge"><title>A03&#45;&gt;R009c</title>
<path fill="none" stroke="black" d="M369.998,-147.17C381.593,-137.272 397.428,-123.754 410.658,-112.46"/>
<polygon fill="black" stroke="black" points="413.164,-114.922 418.498,-105.768 408.62,-109.598 413.164,-114.922"/>
</g>
<!-- R008a -->
<g id="node7" class="node"><title>R008a</title>
<ellipse fill="none" stroke="black" cx="33.797" cy="-18" rx="33.5952" ry="18"/>
<text text-anchor="middle" x="33.797" y="-14.3" font-family="Times,serif" font-size="14.00">R008a</text>
</g>
<!-- R008&#45;&gt;R008a -->
<g id="edge16" class="edge"><title>R008&#45;&gt;R008a</title>
<path fill="none" stroke="black" d="M205.446,-78.3577C200.33,-76.1563 194.913,-73.9241 189.797,-72 140.462,-53.4446 126.446,-53.6998 76.797,-36 74.4152,-35.1509 71.9684,-34.2533 69.5089,-33.3321"/>
<polygon fill="black" stroke="black" points="70.659,-30.0247 60.0687,-29.7143 68.1539,-36.5612 70.659,-30.0247"/>
</g>
<!-- R008b -->
<g id="node8" class="node"><title>R008b</title>
<ellipse fill="none" stroke="black" cx="119.797" cy="-18" rx="34.394" ry="18"/>
<text text-anchor="middle" x="119.797" y="-14.3" font-family="Times,serif" font-size="14.00">R008b</text>
</g>
<!-- R008&#45;&gt;R008b -->
<g id="edge17" class="edge"><title>R008&#45;&gt;R008b</title>
<path fill="none" stroke="black" d="M209.058,-76.3235C192.428,-65.6437 168.387,-50.2046 149.444,-38.0392"/>
<polygon fill="black" stroke="black" points="151.182,-34.9962 140.877,-32.5375 147.4,-40.8863 151.182,-34.9962"/>
</g>
<!-- R008c -->
<g id="node9" class="node"><title>R008c</title>
<ellipse fill="none" stroke="black" cx="205.797" cy="-18" rx="33.5952" ry="18"/>
<text text-anchor="middle" x="205.797" y="-14.3" font-family="Times,serif" font-size="14.00">R008c</text>
</g>
<!-- R008&#45;&gt;R008c -->
<g id="edge15" class="edge"><title>R008&#45;&gt;R008c</title>
<path fill="none" stroke="black" d="M223.229,-72.055C220.602,-64.0586 217.406,-54.3308 214.471,-45.3995"/>
<polygon fill="black" stroke="black" points="217.76,-44.1968 211.313,-35.789 211.11,-46.3819 217.76,-44.1968"/>
</g>
<!-- R008d -->
<g id="node10" class="node"><title>R008d</title>
<ellipse fill="none" stroke="black" cx="291.797" cy="-18" rx="34.394" ry="18"/>
<text text-anchor="middle" x="291.797" y="-14.3" font-family="Times,serif" font-size="14.00">R008d</text>
</g>
<!-- R008&#45;&gt;R008d -->
<g id="edge18" class="edge"><title>R008&#45;&gt;R008d</title>
<path fill="none" stroke="black" d="M242.467,-73.811C250.772,-64.5828 261.544,-52.6149 270.901,-42.2175"/>
<polygon fill="black" stroke="black" points="273.629,-44.4184 277.717,-34.644 268.426,-39.7356 273.629,-44.4184"/>
</g>
<!-- R009a -->
<g id="node12" class="node"><title>R009a</title>
<ellipse fill="none" stroke="black" cx="377.797" cy="-18" rx="33.5952" ry="18"/>
<text text-anchor="middle" x="377.797" y="-14.3" font-family="Times,serif" font-size="14.00">R009a</text>
</g>
<!-- R009&#45;&gt;R009a -->
<g id="edge19" class="edge"><title>R009&#45;&gt;R009a</title>
<path fill="none" stroke="black" d="M359.607,-72.055C362.348,-64.0586 365.684,-54.3308 368.746,-45.3995"/>
<polygon fill="black" stroke="black" points="372.108,-46.3836 372.041,-35.789 365.487,-44.1133 372.108,-46.3836"/>
</g>
<!-- R009b -->
<g id="node13" class="node"><title>R009b</title>
<ellipse fill="none" stroke="black" cx="463.797" cy="-18" rx="34.394" ry="18"/>
<text text-anchor="middle" x="463.797" y="-14.3" font-family="Times,serif" font-size="14.00">R009b</text>
</g>
<!-- R009&#45;&gt;R009b -->
<g id="edge20" class="edge"><title>R009&#45;&gt;R009b</title>
<path fill="none" stroke="black" d="M373.717,-76.3235C390.5,-65.6437 414.761,-50.2046 433.878,-38.0392"/>
<polygon fill="black" stroke="black" points="435.966,-40.8592 442.524,-32.5375 432.208,-34.9535 435.966,-40.8592"/>
</g>
<!-- R004 -->
<g id="node17" class="node"><title>R004</title>
<ellipse fill="none" stroke="black" cx="517.797" cy="-90" rx="29.795" ry="18"/>
<text text-anchor="middle" x="517.797" y="-86.3" font-family="Times,serif" font-size="14.00">R004</text>
</g>
<!-- A05&#45;&gt;R004 -->
<g id="edge21" class="edge"><title>A05&#45;&gt;R004</title>
<path fill="none" stroke="black" d="M502.638,-144.055C504.899,-136.145 507.643,-126.54 510.172,-117.688"/>
<polygon fill="black" stroke="black" points="513.618,-118.366 513,-107.789 506.888,-116.443 513.618,-118.366"/>
</g>
<!-- R003 -->
<g id="node20" class="node"><title>R003</title>
<ellipse fill="none" stroke="black" cx="629.797" cy="-90" rx="29.795" ry="18"/>
<text text-anchor="middle" x="629.797" y="-86.3" font-family="Times,serif" font-size="14.00">R003</text>
</g>
<!-- A07&#45;&gt;R003 -->
<g id="edge22" class="edge"><title>A07&#45;&gt;R003</title>
<path fill="none" stroke="black" d="M638.892,-144.055C637.571,-136.346 635.973,-127.027 634.488,-118.364"/>
<polygon fill="black" stroke="black" points="637.898,-117.54 632.758,-108.275 630.999,-118.723 637.898,-117.54"/>
</g>
<!-- R004a -->
<g id="node22" class="node"><title>R004a</title>
<ellipse fill="none" stroke="black" cx="711.797" cy="-90" rx="33.5952" ry="18"/>
<text text-anchor="middle" x="711.797" y="-86.3" font-family="Times,serif" font-size="14.00">R004a</text>
</g>
<!-- A08&#45;&gt;R004a -->
<g id="edge23" class="edge"><title>A08&#45;&gt;R004a</title>
<path fill="none" stroke="black" d="M713.303,-143.697C713.082,-135.983 712.817,-126.712 712.572,-118.112"/>
<polygon fill="black" stroke="black" points="716.07,-118 712.286,-108.104 709.073,-118.2 716.07,-118"/>
</g>
<!-- R007 -->
<g id="node24" class="node"><title>R007</title>
<ellipse fill="none" stroke="black" cx="793.797" cy="-90" rx="29.795" ry="18"/>
<text text-anchor="middle" x="793.797" y="-86.3" font-family="Times,serif" font-size="14.00">R007</text>
</g>
<!-- A09&#45;&gt;R007 -->
<g id="edge24" class="edge"><title>A09&#45;&gt;R007</title>
<path fill="none" stroke="black" d="M790.786,-143.697C791.227,-135.983 791.756,-126.712 792.248,-118.112"/>
<polygon fill="black" stroke="black" points="795.743,-118.288 792.82,-108.104 788.755,-117.888 795.743,-118.288"/>
</g>
<!-- R011 -->
<g id="node26" class="node"><title>R011</title>
<ellipse fill="none" stroke="black" cx="871.797" cy="-90" rx="29.795" ry="18"/>
<text text-anchor="middle" x="871.797" y="-86.3" font-family="Times,serif" font-size="14.00">R011</text>
</g>
<!-- A10&#45;&gt;R011 -->
<g id="edge25" class="edge"><title>A10&#45;&gt;R011</title>
<path fill="none" stroke="black" d="M870.291,-143.697C870.512,-135.983 870.777,-126.712 871.022,-118.112"/>
<polygon fill="black" stroke="black" points="874.521,-118.2 871.308,-108.104 867.524,-118 874.521,-118.2"/>
</g>
</g>
</svg>
